# xmcd CD database file
#
# Track frame offsets:
#	150
#	18525
#	43414
#	61470
#	95539
#	119214
#	146814
#	167942
#	185454
#	210829
#	228023
#
# Disc length: 3338 seconds
#
# Revision: 0
# Processed by: cddbd v1.5.1PL0 Copyright (c) Steve Scherf et al.
# Submitted via: CDex 1.50beta10
#
DISCID=a10d080b
DTITLE=Moses Khumalo - Ibuyile
DYEAR=2005
DGENRE=Jazz
TTITLE0=Very Happy
TTITLE1=Sorry I'm Late
TTITLE2=Party Time (with Nana Coyote)
TTITLE3=We Yawo
TTITLE4=Kwaiks
TTITLE5=Ibuyile
TTITLE6=G-Men
TTITLE7=Meadowlands
TTITLE8=Friends
TTITLE9=Peace of Mind (with Bhudaza)
TTITLE10=You Drive Me Crazy
EXTD=YEAR: 2005
EXTT0=
EXTT1=
EXTT2=
EXTT3=
EXTT4=
EXTT5=
EXTT6=
EXTT7=
EXTT8=
EXTT9=
EXTT10=
PLAYORDER=
